<?xml version="1.0" standalone="no"?>
<!DOCTYPE svg PUBLIC "-//W3C//DTD SVG 20010904//EN"
 "http://www.w3.org/TR/2001/REC-SVG-20010904/DTD/svg10.dtd">
<svg version="1.0" xmlns="http://www.w3.org/2000/svg"
 width="687.000000pt" height="687.000000pt" viewBox="0 0 687.000000 687.000000"
 preserveAspectRatio="xMidYMid meet">
<metadata>
Created by potrace 1.14, written by Peter Selinger 2001-2017
</metadata>
<g transform="translate(0.000000,687.000000) scale(0.100000,-0.100000)"
fill="#000000" stroke="none">
<path d="M2526 6863 c-1 -1 -46 -3 -99 -4 -95 -1 -97 -2 -103 -26 -10 -40 4
-370 21 -473 18 -119 17 -114 50 -240 15 -58 28 -109 29 -115 3 -19 99 -191
153 -274 55 -85 57 -100 12 -101 -8 0 -49 -9 -90 -20 -41 -12 -84 -23 -97 -26
-86 -18 -379 -137 -512 -207 -135 -72 -396 -240 -430 -277 -3 -3 -27 -23 -55
-45 -190 -151 -432 -418 -562 -619 -26 -39 -59 -91 -75 -116 -47 -73 -171
-326 -216 -440 -67 -174 -137 -433 -158 -585 -3 -27 -8 -59 -10 -70 -12 -61
-19 -204 -19 -390 1 -230 7 -311 41 -495 40 -220 115 -463 201 -650 65 -144
161 -319 220 -406 5 -6 17 -24 28 -40 123 -182 301 -382 475 -534 41 -36 80
-70 88 -77 34 -32 227 -167 311 -217 270 -164 638 -310 881 -352 14 -2 45 -8
70 -14 25 -5 65 -12 90 -16 25 -3 52 -8 60 -9 151 -27 597 -27 766 0 16 3 45
8 64 11 19 3 46 8 60 10 175 30 440 108 577 170 28 13 55 24 58 24 8 0 204 98
256 128 570 324 1010 831 1253 1442 75 190 150 482 171 665 4 33 11 89 15 125
8 70 5 505 -4 555 -3 17 -12 75 -21 130 -8 55 -17 111 -20 125 -3 14 -7 34 -9
45 -43 207 -134 463 -240 675 -69 137 -175 313 -230 381 -12 15 -30 39 -41 55
-11 15 -52 67 -91 114 -40 47 -71 87 -69 88 2 2 18 7 37 12 116 28 217 65 283
105 42 25 79 45 81 45 9 0 144 101 266 199 59 48 180 194 244 296 10 17 21 32
24 35 5 4 66 111 122 214 5 10 32 71 59 134 38 88 47 117 37 123 -26 17 -297
114 -458 165 l-165 53 -215 -3 -215 -3 -150 -47 c-82 -26 -154 -48 -160 -50
-5 -1 -27 -10 -49 -19 -21 -9 -41 -17 -45 -17 -3 0 -32 -13 -63 -29 -191 -97
-462 -361 -553 -538 -1 -1 -48 17 -106 41 -57 23 -116 46 -130 49 -26 7 -26 8
-24 82 1 42 -2 104 -7 138 -20 137 -130 398 -227 541 -55 82 -129 157 -231
236 -25 19 -49 38 -55 43 -125 102 -226 158 -375 209 -164 56 -211 69 -277 74
-67 5 -443 11 -447 7z m384 -456 c47 -27 127 -74 179 -104 79 -46 147 -97 296
-221 24 -21 170 -139 205 -167 35 -28 292 -286 288 -290 -2 -2 -34 4 -73 12
-68 15 -72 18 -140 91 -181 194 -250 257 -435 397 -150 113 -320 244 -355 274
-11 9 -36 27 -55 41 -19 13 -44 33 -55 44 -22 21 -26 23 145 -77z m3029 -681
c-2 -3 -16 -7 -29 -9 -14 -3 -59 -16 -100 -30 -41 -14 -156 -51 -255 -82 -396
-123 -415 -130 -672 -256 -176 -87 -165 -85 -233 -40 -19 13 207 121 377 181
371 131 460 162 483 166 48 9 75 14 110 20 19 3 55 10 80 16 25 5 61 12 80 14
19 3 62 11 95 18 56 12 75 12 64 2z"/>
</g>
</svg>
